<svg xmlns="http://www.w3.org/2000/svg" width="192" height="192" viewBox="0 0 192 192" fill="none">
  <rect width="192" height="192" rx="32" fill="#10B981"/>
  <path d="M96 48C69.5 48 48 69.5 48 96C48 122.5 69.5 144 96 144C122.5 144 144 122.5 144 96C144 69.5 122.5 48 96 48ZM120 104H104V120C104 124.4 100.4 128 96 128C91.6 128 88 124.4 88 120V104H72C67.6 104 64 100.4 64 96C64 91.6 67.6 88 72 88H88V72C88 67.6 91.6 64 96 64C100.4 64 104 67.6 104 72V88H120C124.4 88 128 91.6 128 96C128 100.4 124.4 104 120 104Z" fill="white"/>
</svg>
